<svg width="161" height="78" viewBox="0 0 161 78" fill="none" xmlns="http://www.w3.org/2000/svg"><path d="M32.406 57.344a66.915 66.915 0 0 0-1.875-5.157c-.562-1.5-1.062-2.78-1.5-3.843-2.437.812-5.093 1.375-7.968 1.687 0 4 .093 7.407.28 10.219.063 1.75.126 3.25.188 4.5.125 1.188.219 2.219.282 3.094.125.875.25 1.656.375 2.344.125.75.312 1.468.562 2.156-1.25.937-2.469 1.625-3.656 2.062-1.125.438-2.125.75-3 .938-1.063.25-2 .312-2.813.187a30.031 30.031 0 0 1-.844-2.812c-.25-.938-.437-2.25-.562-3.938a169.833 169.833 0 0 1-.094-6.281c0-2.563.094-5.844.281-9.844.063-.437.094-.875.094-1.312 0-.438.031-.875.094-1.313-.563-.062-1.156-.125-1.781-.187l-1.688-.188c-.375-1-.625-1.875-.75-2.625-.125-.812-.187-1.468-.187-1.968 0-.626.062-1.126.187-1.5 1 .187 2 .28 3 .28h1.406c.126-2.624.25-5.28.376-7.968.124-2.75.218-5.406.28-7.969.126-2.625.22-5.093.282-7.406.063-2.375.125-4.531.188-6.469-1.876 1.25-3.5 2.875-4.876 4.875-1.374 2-2.312 4.313-2.812 6.938-.813-.125-1.5-.5-2.063-1.125a13.424 13.424 0 0 1-1.406-2.063 15.432 15.432 0 0 1-1.125-2.718 6.886 6.886 0 0 1 0-3.563c.313-1.25.782-2.406 1.407-3.469.624-1.125 1.343-2.094 2.156-2.906.812-.875 1.593-1.563 2.343-2.063a35.793 35.793 0 0 1 4.032-2.156c1.437-.687 3.031-1.25 4.781-1.687a16.275 16.275 0 0 1 2.25-1.875c.875-.563 1.688-.906 2.438-1.031 1.062-.25 1.656.406 1.78 1.968a16.143 16.143 0 0 1 1.782-.094 19.801 19.801 0 0 1 1.969-.093c2.375 0 4.843.375 7.406 1.125a20.448 20.448 0 0 1 7.031 3.656c2.188 1.625 3.969 3.781 5.344 6.469 1.375 2.625 2.063 5.844 2.063 9.656 0 4.313-1.032 8.281-3.094 11.906-2 3.625-4.875 6.625-8.625 9 .437 1.125 1 2.532 1.687 4.219a82.812 82.812 0 0 1 2.063 5.719c1 2.625 2.062 5.093 3.187 7.406 1.188 2.25 2.407 4.219 3.657 5.906 1.25 1.688 2.562 3.031 3.937 4.031 1.375 1.063 2.75 1.688 4.125 1.876-.813 1.25-1.75 2.124-2.813 2.624-1.062.5-2.124.813-3.187.938-1.188.188-2.438.188-3.75 0-1.813-.375-3.375-1.25-4.688-2.625-1.312-1.375-2.468-3.031-3.468-4.969-.938-1.937-1.813-4-2.625-6.187-.75-2.25-1.438-4.375-2.063-6.375ZM21.531 17.406c0 1.375-.031 3.032-.093 4.969-.063 1.938-.125 4.031-.188 6.281 0 2.25-.031 4.625-.094 7.125a285.734 285.734 0 0 0-.093 7.313c1.687-.25 3.53-.657 5.53-1.219a16.847 16.847 0 0 0 5.72-2.813c1.75-1.312 3.218-3.062 4.406-5.25 1.187-2.187 1.781-5 1.781-8.437 0-2.625-.469-4.844-1.406-6.656-.875-1.875-2.032-3.375-3.469-4.5a13.081 13.081 0 0 0-4.781-2.531 15.926 15.926 0 0 0-5.063-.844h-.937c-.313 0-.657.031-1.032.094-.187 2-.28 4.156-.28 6.468Zm44.25 50.625c-4.375 0-7.75-1.469-10.125-4.406-2.375-2.938-3.562-6.781-3.562-11.531 0-3.313.468-6.407 1.406-9.282 1-2.937 2.313-5.468 3.938-7.593 1.624-2.125 3.5-3.782 5.624-4.969 2.188-1.25 4.47-1.875 6.844-1.875 2.313 0 4.281.844 5.906 2.531 1.626 1.625 2.438 3.969 2.438 7.032 0 2-.438 4-1.313 6a19.652 19.652 0 0 1-3.468 5.25c-1.375 1.5-2.906 2.718-4.594 3.656-1.688.937-3.313 1.406-4.875 1.406-1 0-1.844-.125-2.531-.375a5.769 5.769 0 0 1-1.875-1.125c.187 3.563.968 6.063 2.343 7.5 1.376 1.375 3.157 2.063 5.344 2.063 1.5 0 2.813-.313 3.938-.938 1.187-.625 2.187-1.344 3-2.156.812-.813 1.469-1.625 1.969-2.438.5-.875.843-1.531 1.03-1.968.188-.376.5-.563.938-.563.5 0 .75.375.75 1.125 0 .688-.25 1.75-.75 3.188-.437 1.374-1.187 2.78-2.25 4.218-1.062 1.375-2.437 2.594-4.125 3.657-1.625 1.062-3.625 1.593-6 1.593Zm4.313-35.625c-.375 0-1.094.407-2.156 1.219-1 .75-2.094 1.875-3.282 3.375-1.125 1.5-2.187 3.313-3.187 5.438-.938 2.062-1.532 4.406-1.782 7.03 3.75-.874 6.72-2.25 8.907-4.124 2.187-1.875 3.281-4.625 3.281-8.25 0-1.813-.219-3.032-.656-3.657-.438-.687-.813-1.03-1.125-1.03Zm29.062 16.782c1.375.5 2.688.968 3.938 1.406 1.25.437 2.344.968 3.281 1.593.937.626 1.687 1.376 2.25 2.25.563.813.844 1.844.844 3.094 0 1.5-.344 2.907-1.031 4.219-.626 1.313-1.563 2.469-2.813 3.469-1.25 1-2.781 1.781-4.594 2.344-1.75.624-3.719.937-5.906.937-2.438 0-4.406-.25-5.906-.75-1.5-.438-2.656-.969-3.469-1.594-.813-.625-1.344-1.25-1.594-1.875s-.375-1.125-.375-1.5c0-.75.156-1.562.469-2.437.313-.938.906-1.938 1.781-3 .375-.438.781-.844 1.219-1.219.875-.75 1.75-1.219 2.625-1.406-.125 1.437.031 2.625.469 3.562.5.875 1.125 1.563 1.875 2.063.812.5 1.687.843 2.625 1.031 1 .188 1.937.281 2.812.281.875 0 1.75-.125 2.625-.375a13.32 13.32 0 0 0 2.531-.937c.75-.438 1.344-.907 1.782-1.407.5-.562.75-1.156.75-1.78 0-.688-.282-1.25-.844-1.688-.562-.438-1.281-.782-2.156-1.032a11.559 11.559 0 0 0-2.719-.656c-.938-.187-1.844-.375-2.719-.562-.875-.188-2.062-.438-3.562-.75a20.527 20.527 0 0 1-4.313-1.688 12.858 12.858 0 0 1-3.656-3c-1-1.25-1.5-2.906-1.5-4.968 0-2.376.594-4.438 1.781-6.188 1.25-1.813 2.75-3.313 4.5-4.5 1.813-1.25 3.719-2.188 5.719-2.813 2-.625 3.781-.937 5.344-.937.812 0 1.687.125 2.625.375a6.982 6.982 0 0 1 2.625 1.125 5.682 5.682 0 0 1 1.969 2.063c.562.875.843 2 .843 3.375 0 1.374-.125 2.5-.375 3.374-.187.813-.5 1.47-.937 1.97a2.528 2.528 0 0 1-1.407.843c-.562.125-1.218.188-1.968.188-.5 0-.969-.063-1.406-.188-.376-.125-.782-.25-1.219-.375a3.314 3.314 0 0 1-1.219-.656c.625-.75 1.094-1.469 1.406-2.157.375-.687.563-1.53.563-2.53 0-.876-.25-1.657-.75-2.344-.438-.688-1.188-1.032-2.25-1.032a8.541 8.541 0 0 0-3.281.657 9.737 9.737 0 0 0-2.72 1.78 10.01 10.01 0 0 0-1.874 2.626c-.438.937-.656 1.968-.656 3.093 0 1.688.624 3.282 1.874 4.782 1.313 1.5 3.344 2.781 6.094 3.843Zm51-23.907c-.687-.125-1.625-.25-2.812-.375a59.994 59.994 0 0 0-3.469-.281 97.317 97.317 0 0 0-4.406-.094c-1.563-.125-3.531-.125-5.907 0-2.312.063-4.75.094-7.312.094a69.023 69.023 0 0 1-.375 4.969c-.125 1.687-.25 3.343-.375 4.968-.312 3-.594 6.063-.844 9.188a149.412 149.412 0 0 0-.281 8.906c0 2.813.156 5.375.469 7.688.375 2.25 1.031 4.031 1.968 5.343-.75.563-1.562 1-2.437 1.313-.875.25-1.656.438-2.344.563-.812.187-1.625.28-2.437.28-.75 0-1.375-.25-1.875-.75s-.781-1.374-.844-2.624a72.502 72.502 0 0 1-.094-6.375c.125-2.188.25-4.469.375-6.844.188-2.375.375-4.906.563-7.594.187-2.75.375-5.75.562-9 .188-3.375.281-6.656.281-9.843a234.16 234.16 0 0 1-6 .093c-1.624 0-2.531-.031-2.718-.093-.188-.125-.406-.407-.656-.844-.25-.375-.563-.938-.938-1.688-.438-.75-.969-1.812-1.594-3.187h3.938c1.375 0 2.656-.032 3.844-.094l4.124-.188c-.062-1-.093-2.062-.093-3.187a40.75 40.75 0 0 1-.094-2.906c0-1.125-.031-2.156-.094-3.094 0-.375.438-.813 1.313-1.313a22.33 22.33 0 0 1 3-1.5c1.062-.437 2.031-.718 2.906-.843.938-.125 1.406.093 1.406.656 0 .563-.031 1.938-.094 4.125 0 2.125-.062 4.719-.187 7.781.625 0 1.094-.031 1.406-.093a338.53 338.53 0 0 0 7.969-.375c2.062-.188 3.75-.22 5.062-.094 1.313.125 2.469.437 3.469.937s2.125 1.313 3.375 2.438c.438.375.813.781 1.125 1.218.313.375.563.813.75 1.313.25.438.375.906.375 1.406Zm10.125 25.594c-.125 2.438-.562 4.688-1.312 6.75-.688 2.063-1.657 3.875-2.907 5.438a13.87 13.87 0 0 1-4.5 3.562c-1.687.875-3.562 1.344-5.624 1.406-1.813.063-3.532-.375-5.157-1.312-1.562-.938-2.937-2.25-4.125-3.938-1.187-1.687-2.094-3.687-2.718-6-.563-2.375-.719-4.937-.469-7.687.187-3.188.781-5.907 1.781-8.157 1-2.312 2.062-4.218 3.188-5.718 1.124-1.5 2.156-2.594 3.093-3.282 1-.75 1.625-1.187 1.875-1.312.438-.188.844-.219 1.219-.094.375.063.781.157 1.219.282.125.062.25.218.375.468.25.438.406 1.25.469 2.438.312-.688.718-1.25 1.218-1.688.5-.437 1-.75 1.5-.937a6.877 6.877 0 0 1 1.875-.469c.438-.063 1.188.281 2.25 1.031 1.125.75 2.188 1.938 3.188 3.563 1.062 1.625 1.969 3.75 2.719 6.375.75 2.562 1.031 5.656.843 9.281Zm-6.375-1.125c.063-1.5 0-3-.187-4.5-.125-1.563-.375-2.969-.75-4.219-.313-1.312-.719-2.343-1.219-3.093-.5-.813-1-1.22-1.5-1.22-.562.126-1.188.407-1.875.844-.563.376-1.187.97-1.875 1.782s-1.344 1.968-1.969 3.468c-.062-.187-.125-.53-.187-1.03-.063-.438-.125-1-.188-1.688 0-.75.063-1.75.188-3-.875 1.062-1.563 2.312-2.063 3.75a39.861 39.861 0 0 0-1.031 4.125 59.407 59.407 0 0 0-.562 4.687c-.063 1.688 0 3.344.187 4.969.25 1.625.625 3.063 1.125 4.313.562 1.25 1.219 2.25 1.969 3s1.656 1.093 2.719 1.03c1.062-.062 2-.5 2.812-1.312.812-.812 1.531-1.843 2.156-3.093.625-1.25 1.125-2.657 1.5-4.22.375-1.562.625-3.093.75-4.593Z" fill="#000"/></svg>