<svg width="161" height="78" viewBox="0 0 161 78" fill="none" xmlns="http://www.w3.org/2000/svg"><path d="M32.507 57.344a66.915 66.915 0 0 0-1.875-5.157c-.563-1.5-1.063-2.78-1.5-3.843-2.438.812-5.094 1.375-7.969 1.687 0 4 .094 7.407.281 10.219.063 1.75.125 3.25.188 4.5.125 1.188.218 2.219.281 3.094.125.875.25 1.656.375 2.344.125.75.313 1.468.563 2.156-1.25.937-2.47 1.625-3.657 2.062-1.125.438-2.125.75-3 .938-1.062.25-2 .312-2.812.187a30 30 0 0 1-.844-2.812c-.25-.938-.438-2.25-.563-3.938-.062-1.625-.093-3.719-.093-6.281 0-2.563.094-5.844.281-9.844.063-.437.094-.875.094-1.312 0-.438.031-.875.094-1.313-.563-.062-1.157-.125-1.782-.187l-1.687-.188c-.375-1-.625-1.875-.75-2.625-.125-.812-.188-1.468-.188-1.968 0-.626.063-1.126.188-1.5 1 .187 2 .28 3 .28h1.406c.125-2.624.25-5.28.375-7.968.125-2.75.219-5.406.281-7.969.125-2.625.219-5.093.281-7.406.063-2.375.126-4.531.188-6.469-1.875 1.25-3.5 2.875-4.875 4.875s-2.312 4.313-2.812 6.938c-.813-.125-1.5-.5-2.063-1.125a13.424 13.424 0 0 1-1.406-2.063 15.432 15.432 0 0 1-1.125-2.718 6.886 6.886 0 0 1 0-3.563c.312-1.25.781-2.406 1.406-3.469.625-1.125 1.344-2.094 2.156-2.906.813-.875 1.594-1.563 2.344-2.063a35.795 35.795 0 0 1 4.031-2.156c1.438-.687 3.031-1.25 4.781-1.687a16.275 16.275 0 0 1 2.25-1.875c.875-.563 1.688-.906 2.438-1.031 1.063-.25 1.656.406 1.781 1.968a16.144 16.144 0 0 1 1.782-.094 19.803 19.803 0 0 1 1.968-.093c2.375 0 4.844.375 7.406 1.125a20.449 20.449 0 0 1 7.032 3.656c2.187 1.625 3.968 3.781 5.343 6.469 1.375 2.625 2.063 5.844 2.063 9.656 0 4.313-1.031 8.281-3.094 11.906-2 3.625-4.875 6.625-8.625 9A293.4 293.4 0 0 0 38.132 49a82.814 82.814 0 0 1 2.062 5.719c1 2.625 2.063 5.093 3.188 7.406 1.187 2.25 2.406 4.219 3.656 5.906 1.25 1.688 2.563 3.031 3.938 4.031 1.374 1.063 2.75 1.688 4.124 1.876-.812 1.25-1.75 2.124-2.812 2.624-1.063.5-2.125.813-3.188.938-1.187.188-2.437.188-3.75 0-1.812-.375-3.375-1.25-4.687-2.625-1.313-1.375-2.469-3.031-3.469-4.969-.937-1.937-1.812-4-2.625-6.187a356.18 356.18 0 0 1-2.062-6.375ZM21.632 17.406c0 1.375-.032 3.032-.094 4.969-.063 1.938-.125 4.031-.188 6.281 0 2.25-.03 4.625-.093 7.125a285.277 285.277 0 0 0-.094 7.313c1.688-.25 3.531-.657 5.531-1.219a16.846 16.846 0 0 0 5.719-2.813c1.75-1.312 3.219-3.062 4.406-5.25 1.188-2.187 1.781-5 1.781-8.437 0-2.625-.468-4.844-1.406-6.656-.875-1.875-2.031-3.375-3.469-4.5a13.081 13.081 0 0 0-4.78-2.531 15.926 15.926 0 0 0-5.063-.844h-.938c-.312 0-.656.031-1.031.094-.188 2-.281 4.156-.281 6.468Zm44.25 50.625c-4.375 0-7.75-1.469-10.125-4.406-2.375-2.938-3.563-6.781-3.563-11.531 0-3.313.469-6.407 1.406-9.282 1-2.937 2.313-5.468 3.938-7.593s3.5-3.782 5.625-4.969c2.188-1.25 4.469-1.875 6.844-1.875 2.312 0 4.281.844 5.906 2.531 1.625 1.625 2.438 3.969 2.438 7.032 0 2-.438 4-1.313 6a19.65 19.65 0 0 1-3.469 5.25c-1.375 1.5-2.906 2.718-4.594 3.656-1.687.937-3.312 1.406-4.874 1.406-1 0-1.844-.125-2.532-.375a5.77 5.77 0 0 1-1.875-1.125c.188 3.563.969 6.063 2.344 7.5 1.375 1.375 3.156 2.063 5.344 2.063 1.5 0 2.812-.313 3.937-.938 1.188-.625 2.188-1.344 3-2.156.813-.813 1.469-1.625 1.969-2.438.5-.875.844-1.531 1.031-1.968.188-.376.5-.563.938-.563.5 0 .75.375.75 1.125 0 .688-.25 1.75-.75 3.188-.438 1.374-1.188 2.78-2.25 4.218-1.063 1.375-2.438 2.594-4.125 3.657-1.625 1.062-3.625 1.593-6 1.593Zm4.312-35.625c-.375 0-1.094.407-2.156 1.219-1 .75-2.094 1.875-3.281 3.375-1.125 1.5-2.188 3.313-3.188 5.438-.937 2.062-1.531 4.406-1.781 7.03 3.75-.874 6.719-2.25 8.906-4.124 2.188-1.875 3.281-4.625 3.281-8.25 0-1.813-.218-3.032-.656-3.657-.437-.687-.812-1.03-1.125-1.03Zm29.063 16.782c1.375.5 2.687.968 3.937 1.406 1.25.437 2.344.968 3.282 1.593.937.626 1.687 1.376 2.25 2.25.562.813.843 1.844.843 3.094 0 1.5-.343 2.907-1.031 4.219-.625 1.313-1.562 2.469-2.812 3.469-1.25 1-2.782 1.781-4.594 2.344-1.75.624-3.719.937-5.907.937-2.437 0-4.406-.25-5.906-.75-1.5-.438-2.656-.969-3.469-1.594-.812-.625-1.343-1.25-1.593-1.875s-.375-1.125-.375-1.5c0-.75.156-1.562.468-2.437.313-.938.907-1.938 1.782-3a11.21 11.21 0 0 1 1.218-1.219c.876-.75 1.75-1.219 2.626-1.406-.126 1.437.03 2.625.468 3.562.5.875 1.125 1.563 1.875 2.063a7.94 7.94 0 0 0 2.625 1.031c1 .188 1.938.281 2.813.281.875 0 1.75-.125 2.625-.375.937-.25 1.781-.562 2.531-.937.75-.438 1.344-.907 1.781-1.407.5-.562.75-1.156.75-1.78 0-.688-.281-1.25-.843-1.688-.563-.438-1.282-.782-2.157-1.032a11.536 11.536 0 0 0-2.719-.656c-.937-.187-1.843-.375-2.718-.562-.875-.188-2.063-.438-3.563-.75a20.526 20.526 0 0 1-4.312-1.688 12.859 12.859 0 0 1-3.657-3c-1-1.25-1.5-2.906-1.5-4.968 0-2.376.594-4.438 1.782-6.188 1.25-1.813 2.75-3.313 4.5-4.5 1.812-1.25 3.718-2.188 5.718-2.813s3.782-.937 5.344-.937c.813 0 1.688.125 2.625.375a6.968 6.968 0 0 1 2.625 1.125c.813.5 1.469 1.188 1.969 2.063.563.875.844 2 .844 3.375 0 1.374-.125 2.5-.375 3.374-.188.813-.5 1.47-.938 1.97a2.525 2.525 0 0 1-1.406.843c-.562.125-1.219.188-1.969.188-.5 0-.968-.063-1.406-.188-.375-.125-.781-.25-1.219-.375a3.318 3.318 0 0 1-1.218-.656c.625-.75 1.093-1.469 1.406-2.157.375-.687.562-1.53.562-2.53 0-.876-.25-1.657-.75-2.344-.437-.688-1.187-1.032-2.25-1.032a8.541 8.541 0 0 0-3.281.657 9.739 9.739 0 0 0-2.719 1.78 10.01 10.01 0 0 0-1.875 2.626c-.437.937-.656 1.968-.656 3.093 0 1.688.625 3.282 1.875 4.782 1.313 1.5 3.344 2.781 6.094 3.843Zm51-23.907c-.688-.125-1.625-.25-2.813-.375a59.959 59.959 0 0 0-3.468-.281 97.33 97.33 0 0 0-4.407-.094c-1.562-.125-3.531-.125-5.906 0-2.312.063-4.75.094-7.312.094a69.602 69.602 0 0 1-.375 4.969c-.125 1.687-.25 3.343-.375 4.968-.313 3-.594 6.063-.844 9.188a148.574 148.574 0 0 0-.281 8.906c0 2.813.156 5.375.468 7.688.375 2.25 1.032 4.031 1.969 5.343-.75.563-1.562 1-2.437 1.313a24.84 24.84 0 0 1-2.344.563c-.813.187-1.625.28-2.438.28-.75 0-1.375-.25-1.875-.75s-.781-1.374-.843-2.624a72.117 72.117 0 0 1-.094-6.375c.125-2.188.25-4.469.375-6.844.187-2.375.375-4.906.562-7.594.188-2.75.375-5.75.563-9 .187-3.375.281-6.656.281-9.843-2.375.062-4.375.093-6 .093s-2.531-.031-2.719-.093c-.187-.125-.406-.407-.656-.844-.25-.375-.562-.938-.937-1.688-.438-.75-.969-1.812-1.594-3.187h3.937a73.4 73.4 0 0 0 3.844-.094l4.125-.188c-.062-1-.094-2.062-.094-3.187a41.386 41.386 0 0 1-.093-2.906c0-1.125-.032-2.156-.094-3.094 0-.375.437-.813 1.312-1.313a22.448 22.448 0 0 1 3-1.5c1.063-.437 2.032-.718 2.907-.843.937-.125 1.406.093 1.406.656 0 .563-.031 1.938-.094 4.125 0 2.125-.062 4.719-.187 7.781.625 0 1.093-.031 1.406-.093 3.312-.125 5.969-.25 7.969-.375 2.062-.188 3.75-.22 5.062-.094 1.313.125 2.469.437 3.469.937s2.125 1.313 3.375 2.438c.437.375.812.781 1.125 1.218.312.375.562.813.75 1.313.25.438.375.906.375 1.406Zm10.125 25.594c-.125 2.438-.563 4.688-1.313 6.75-.687 2.063-1.656 3.875-2.906 5.438a13.87 13.87 0 0 1-4.5 3.562c-1.687.875-3.562 1.344-5.625 1.406-1.812.063-3.531-.375-5.156-1.312-1.563-.938-2.938-2.25-4.125-3.938-1.188-1.687-2.094-3.687-2.719-6-.562-2.375-.719-4.937-.469-7.687.188-3.188.782-5.907 1.782-8.157 1-2.312 2.062-4.218 3.187-5.718s2.156-2.594 3.094-3.282c1-.75 1.625-1.187 1.875-1.312.437-.188.844-.219 1.219-.094.375.063.781.157 1.218.282.125.062.25.218.375.468.25.438.407 1.25.469 2.438.313-.688.719-1.25 1.219-1.688.5-.437 1-.75 1.5-.937a6.877 6.877 0 0 1 1.875-.469c.437-.063 1.187.281 2.25 1.031 1.125.75 2.187 1.938 3.187 3.563 1.063 1.625 1.969 3.75 2.719 6.375.75 2.562 1.031 5.656.844 9.281Zm-6.375-1.125c.062-1.5 0-3-.188-4.5-.125-1.563-.375-2.969-.75-4.219-.312-1.312-.718-2.343-1.218-3.093-.5-.813-1-1.22-1.5-1.22-.563.126-1.188.407-1.875.844-.563.376-1.188.97-1.875 1.782-.688.812-1.344 1.968-1.969 3.468-.063-.187-.125-.53-.188-1.03-.062-.438-.125-1-.187-1.688 0-.75.062-1.75.187-3-.875 1.062-1.562 2.312-2.062 3.75a39.607 39.607 0 0 0-1.031 4.125 59.887 59.887 0 0 0-.563 4.687c-.062 1.688 0 3.344.188 4.969.25 1.625.625 3.063 1.125 4.313.562 1.25 1.218 2.25 1.968 3s1.657 1.093 2.719 1.03c1.063-.062 2-.5 2.813-1.312.812-.812 1.531-1.843 2.156-3.093.625-1.25 1.125-2.657 1.5-4.22.375-1.562.625-3.093.75-4.593Z" fill="#FEFEFE"/></svg>